<svg xmlns="http://www.w3.org/2000/svg" xmlns:xlink="http://www.w3.org/1999/xlink" viewBox="0 0 103.91 96.26"><defs><clipPath id="clip-path"><path d="M86.09,22.59,72.59,33.73A39.48,39.48,0,0,0,69,29.61a34.62,34.62,0,0,0-4.56-3.81A31.69,31.69,0,0,0,59.52,23L73,11.81a32.73,32.73,0,0,1,4.91,2.85,33.86,33.86,0,0,1,4.56,3.81A37.32,37.32,0,0,1,86.09,22.59Z" style="fill:none"/></clipPath><clipPath id="clip-path-2"><path d="M92.26,38.68,78.75,49.82a8.75,8.75,0,0,1-.16-1L92.1,37.64A7,7,0,0,0,92.26,38.68Z" style="fill:none"/></clipPath><clipPath id="clip-path-3"><path d="M71.81,30.11,58.31,41.25a21.82,21.82,0,0,0-6.71-5.57L65.1,24.54A21.68,21.68,0,0,1,71.81,30.11Z" style="fill:none"/></clipPath><clipPath id="clip-path-4"><path d="M71.34,31,57.84,42.16a21,21,0,0,0-6.62-5.61L64.72,25.4A21,21,0,0,1,71.34,31Z" style="fill:none"/></clipPath><clipPath id="clip-path-5"><path d="M21,26.6l13.5-11.14A30.22,30.22,0,0,1,42,11,36.88,36.88,0,0,1,55.66,8.2,37.64,37.64,0,0,1,73,11.81L59.52,23a37.63,37.63,0,0,0-17.36-3.62,37.09,37.09,0,0,0-13.62,2.75A29.86,29.86,0,0,0,21,26.6Z" style="fill:none"/></clipPath><clipPath id="clip-path-6"><path d="M39.87,34.21l.34-.28.36-.3.76-.63.39-.32.37-.31.37-.3.34-.28,1.23-1,1.31-1.08,1.36-1.12,1.39-1.14,1.38-1.14,1.36-1.13,1.31-1.08,1.23-1a22.16,22.16,0,0,1,3.45-.34,18,18,0,0,1,8.28,1.81L51.6,35.68a18,18,0,0,0-8.29-1.8A20.8,20.8,0,0,0,39.87,34.21Z" style="fill:none"/></clipPath><clipPath id="clip-path-7"><path d="M39.87,34.21h0l1.58-1.3,1.67-1.38,1.74-1.44,1.76-1.45,1.77-1.46,1.74-1.43,1.67-1.38,1.58-1.31h0L42.8,31.79,41.33,33l-.38.32-.19.15-.19.16-.18.15-.36.29A1.07,1.07,0,0,1,39.87,34.21Z" style="fill:none"/></clipPath><clipPath id="clip-path-8"><path d="M62.23,67a13.17,13.17,0,0,0,.83-4.18L75,53l1.58-1.3a13.45,13.45,0,0,1-.84,4.17l-4.11,3.39Z" style="fill:none"/></clipPath><clipPath id="clip-path-9"><path d="M62.11,67.3l.12-.29,5-4.12,8.52-7-.12.3Z" style="fill:none"/></clipPath><clipPath id="clip-path-10"><path d="M62.11,67.3a1.85,1.85,0,0,1,.37-.31l.2-.16.41-.34.21-.17.42-.35.42-.35.42-.34L65,65l.38-.31,1.2-1,1.28-1,1.32-1.09,1.34-1.11,1.35-1.11,1.32-1.09,1.27-1.05,1.2-1a11.53,11.53,0,0,1-.79,1.57L61.31,68.87A11,11,0,0,0,62.11,67.3Z" style="fill:none"/></clipPath><clipPath id="clip-path-11"><path d="M61.17,69.1a1.76,1.76,0,0,0,.14-.23L74.82,57.73l-.14.23Z" style="fill:none"/></clipPath><clipPath id="clip-path-12"><path d="M33.62,38.07l13.5-11.14a15.34,15.34,0,0,1,9.78-3.22,17,17,0,0,1,7.82,1.69L51.22,36.55a16.92,16.92,0,0,0-7.83-1.7A15.31,15.31,0,0,0,33.62,38.07Z" style="fill:none"/></clipPath><clipPath id="clip-path-13"><path d="M82.54,71.17,69,82.31a25.29,25.29,0,0,0,3.21-3.17c5.37-6.35,7.63-15.4,6.7-26.87L92.46,41.12C93.38,52.6,91.13,61.64,85.75,68A25.37,25.37,0,0,1,82.54,71.17Z" style="fill:none"/></clipPath><clipPath id="clip-path-14"><path d="M71.28,60.29,57.77,71.43a11.44,11.44,0,0,0,4.3-8.16l13.5-11.14A11.45,11.45,0,0,1,71.28,60.29Z" style="fill:none"/></clipPath><clipPath id="clip-path-15"><path d="M61.17,69.1a2.42,2.42,0,0,1,.31-.25l.65-.54.68-.55.69-.58.35-.29.7-.58.69-.57.67-.54.62-.52,4.08-3.36,1.06-.88,1-.86,1-.84,1-.78a13.09,13.09,0,0,1-2.78,3.11L58.39,72.22A13.33,13.33,0,0,0,61.17,69.1Z" style="fill:none"/></clipPath><clipPath id="clip-path-16"><path d="M71.9,61.07,58.39,72.22l-.17.14,13.5-11.14Z" style="fill:none"/></clipPath><clipPath id="clip-path-17"><path d="M71,60.53,57.47,71.68l.11-.1L71.09,60.44Z" style="fill:none"/></clipPath><clipPath id="clip-path-18"><path d="M58.11,72.45l.11-.09,13.5-11.14-.11.09Z" style="fill:none"/></clipPath><clipPath id="clip-path-19"><path d="M71.61,61.31,58.11,72.45c-2.89,2.39-6.72,3.64-11.38,3.72-5.58.1-10.16-1.72-13.6-5.43s-5.47-8.92-6-15.46.65-11.74,3.5-15.51A14.86,14.86,0,0,1,33,37.3L46.48,26.16a14.1,14.1,0,0,0-2.34,2.47c-2.85,3.77-4,9-3.51,15.51s2.55,11.75,6,15.45,8,5.54,13.59,5.44C64.9,64.94,68.73,63.69,71.61,61.31Z" style="fill:none"/></clipPath><clipPath id="clip-path-20"><path d="M17.86,29.66A28.74,28.74,0,0,1,21,26.6l13.5-11.14a28.61,28.61,0,0,0-3.17,3.06A33.07,33.07,0,0,0,24.79,30,36.08,36.08,0,0,0,23.4,43.7a39,39,0,0,0,1.18,6.85,39.73,39.73,0,0,0,2.52,6.82,37.69,37.69,0,0,0,3.55,6L17.15,74.49a36.53,36.53,0,0,1-3.55-6,38.67,38.67,0,0,1-2.53-6.82,39.77,39.77,0,0,1-1.18-6.85,36.12,36.12,0,0,1,1.4-13.75A33.14,33.14,0,0,1,17.86,29.66Z" style="fill:none"/></clipPath><clipPath id="clip-path-21"><path d="M21.72,79.68a37.41,37.41,0,0,1-4.57-5.19l1.57-1.3,1.68-1.38,1.73-1.43,1.77-1.46,1.77-1.46L27.4,66l1.67-1.38,1.58-1.3a37.48,37.48,0,0,0,4.58,5.18,34,34,0,0,0,11.7,7.26A41.5,41.5,0,0,0,61.3,78c8.86-.16,16-2.44,21.24-6.78L69,82.31c-5.27,4.35-12.39,6.62-21.24,6.78a41.56,41.56,0,0,1-14.38-2.16A34.15,34.15,0,0,1,21.72,79.68Z" style="fill:none"/></clipPath><clipPath id="clip-path-22"><path d="M83.19,71.93,69.68,83.08c-5.42,4.47-12.74,6.82-21.81,7a42.36,42.36,0,0,1-14.72-2.21,35.2,35.2,0,0,1-12.06-7.48,38,38,0,0,1-8.35-11.48,38.82,38.82,0,0,1-2.59-7,40.13,40.13,0,0,1-1.22-7,37.23,37.23,0,0,1,1.45-14.12A33.49,33.49,0,0,1,17.13,29a27.72,27.72,0,0,1,3.26-3.15L33.9,14.69a29.57,29.57,0,0,0-3.27,3.16A33.65,33.65,0,0,0,23.88,29.6a37,37,0,0,0-1.44,14.11,40.21,40.21,0,0,0,1.21,7,40.7,40.7,0,0,0,2.59,7A38.32,38.32,0,0,0,34.6,69.23a35.41,35.41,0,0,0,12,7.48,42.42,42.42,0,0,0,14.73,2.21C70.45,78.76,77.76,76.41,83.19,71.93Z" style="fill:none"/></clipPath></defs><title>Genso Logo</title><g id="Layer_3" data-name="Layer 3"><path d="M46.83,91.72c-.6,0-1.12,0-1.5,0a5.49,5.49,0,0,0-.67,0C24.73,91.29,11.2,82.58,6.55,67.14-3.72,32.94,21.23,21,22.9,20.22l19-12,.11,0A63.41,63.41,0,0,1,61,5c7.41,0,13.23,1.83,17.3,5.45l18.35-.12L97,47.69v.07c-.07.53-1.7,13.17-3.55,16.72a32,32,0,0,1-7.88,10C81.7,78,74.29,82.29,74,82.48L65.73,87a27.07,27.07,0,0,1-12.6,4.44C53,91.49,49.27,91.72,46.83,91.72Z" style="fill:#f04c47"/><path d="M61,6C67,6,73.38,7.24,77.87,11.41l17.75-.11L96,47.63S94.34,60.58,92.55,64a30.94,30.94,0,0,1-7.66,9.77c-3.83,3.44-11.41,7.82-11.41,7.82l-8.29,4.58A26.1,26.1,0,0,1,53,90.48s-3.77.24-6.21.24c-.56,0-1,0-1.41,0C43.52,90.51,15,91.8,7.51,66.85-2.92,32.11,23.37,21.1,23.37,21.1l19-12A63.09,63.09,0,0,1,61,6m0-2a64.67,64.67,0,0,0-19.25,3.3l-.21.07-.18.12L22.44,19.33A34,34,0,0,0,9.92,29.76C4.84,36.6,0,48.69,5.6,67.43c4.77,15.89,18.64,24.85,39,25.23h.61c.39,0,.91,0,1.58,0,2.47,0,6.18-.23,6.34-.24h.06a28.25,28.25,0,0,0,13-4.58l8.19-4.53c.35-.2,7.84-4.55,11.78-8.08a33.14,33.14,0,0,0,8.1-10.34c1.89-3.65,3.48-15.7,3.65-17.06l0-.13v-.14l-.38-36.33,0-2h-2l-17,.1C74.39,5.79,68.45,4,61,4Z" style="fill:#f04c47"/><g style="isolation:isolate"><g style="isolation:isolate"><g style="clip-path:url(#clip-path)"><g style="isolation:isolate"><path d="M86.09,22.59,72.59,33.73A39.48,39.48,0,0,0,69,29.61a34.62,34.62,0,0,0-4.56-3.81A31.69,31.69,0,0,0,59.52,23L73,11.81a32.73,32.73,0,0,1,4.91,2.85,33.86,33.86,0,0,1,4.56,3.81,37.32,37.32,0,0,1,3.59,4.12"/></g></g></g><g style="isolation:isolate"><g style="clip-path:url(#clip-path-2)"><g style="isolation:isolate"><path d="M92.26,38.68,78.75,49.82a8.75,8.75,0,0,1-.16-1L92.1,37.64a7,7,0,0,0,.16,1"/></g></g></g><polygon points="92.46 41.12 78.95 52.27 78.75 49.82 92.26 38.68 92.46 41.12"/><polygon points="86.09 22.59 72.58 33.73 58.31 41.25 71.81 30.11 86.09 22.59" style="fill:gray"/><polygon points="87.53 22.97 74.03 34.11 58.1 42.49 71.61 31.34 87.53 22.97"/><polygon points="71.61 31.34 58.1 42.49 57.84 42.16 71.34 31.01 71.61 31.34"/><g style="isolation:isolate"><g style="clip-path:url(#clip-path-3)"><g style="isolation:isolate"><path d="M71.81,30.11,58.31,41.25a21.82,21.82,0,0,0-6.71-5.57L65.1,24.54a21.68,21.68,0,0,1,6.71,5.57" style="fill:#858585"/></g></g></g><g style="isolation:isolate"><g style="clip-path:url(#clip-path-4)"><g style="isolation:isolate"><path d="M71.34,31,57.84,42.16a21,21,0,0,0-6.62-5.61L64.72,25.4A21,21,0,0,1,71.34,31"/></g></g></g><g style="isolation:isolate"><g style="clip-path:url(#clip-path-5)"><g style="isolation:isolate"><path d="M73,11.81,59.52,23a37.63,37.63,0,0,0-17.36-3.62,37.09,37.09,0,0,0-13.62,2.75A29.86,29.86,0,0,0,21,26.6l13.5-11.14A30.22,30.22,0,0,1,42,11,36.88,36.88,0,0,1,55.66,8.2,37.64,37.64,0,0,1,73,11.81"/></g></g></g><g style="isolation:isolate"><g style="clip-path:url(#clip-path-6)"><g style="isolation:isolate"><path d="M65.1,24.54,51.6,35.68a18,18,0,0,0-8.29-1.8A16.2,16.2,0,0,0,33,37.3L46.48,26.16a16.25,16.25,0,0,1,10.34-3.43,18,18,0,0,1,8.28,1.81" style="fill:#858585"/></g></g></g><g style="isolation:isolate"><g style="clip-path:url(#clip-path-7)"><g style="isolation:isolate"><path d="M65.1,24.54,51.6,35.68a18,18,0,0,0-8.29-1.8A16.2,16.2,0,0,0,33,37.3L46.48,26.16a16.25,16.25,0,0,1,10.34-3.43,18,18,0,0,1,8.28,1.81" style="fill:#858585"/></g></g></g><polygon points="76.57 51.69 63.06 62.83 63.08 62.28 76.59 51.13 76.57 51.69" style="fill:gray"/><g style="isolation:isolate"><g style="clip-path:url(#clip-path-8)"><g style="isolation:isolate"><path d="M71.9,61.07,58.39,72.22a12.39,12.39,0,0,0,4.67-9.39L76.57,51.69a12.36,12.36,0,0,1-4.67,9.38" style="fill:#858585"/></g></g></g><g style="isolation:isolate"><g style="clip-path:url(#clip-path-9)"><g style="isolation:isolate"><path d="M71.9,61.07,58.39,72.22a12.39,12.39,0,0,0,4.67-9.39L76.57,51.69a12.36,12.36,0,0,1-4.67,9.38" style="fill:#858585"/></g></g></g><g style="isolation:isolate"><g style="clip-path:url(#clip-path-10)"><g style="isolation:isolate"><path d="M71.9,61.07,58.39,72.22a12.39,12.39,0,0,0,4.67-9.39L76.57,51.69a12.36,12.36,0,0,1-4.67,9.38" style="fill:#858585"/></g></g></g><g style="isolation:isolate"><g style="clip-path:url(#clip-path-11)"><g style="isolation:isolate"><path d="M71.9,61.07,58.39,72.22a12.39,12.39,0,0,0,4.67-9.39L76.57,51.69a12.36,12.36,0,0,1-4.67,9.38" style="fill:#858585"/></g></g></g><polygon points="92.1 37.64 78.59 48.79 43.91 49.41 57.41 38.27 92.1 37.64"/><g style="isolation:isolate"><g style="clip-path:url(#clip-path-12)"><g style="isolation:isolate"><path d="M64.72,25.4,51.22,36.55a16.92,16.92,0,0,0-7.83-1.7,15.31,15.31,0,0,0-9.77,3.22l13.5-11.14a15.34,15.34,0,0,1,9.78-3.22,17,17,0,0,1,7.82,1.69"/></g></g></g><g style="isolation:isolate"><g style="clip-path:url(#clip-path-13)"><g style="isolation:isolate"><path d="M82.54,71.17,69,82.31a25.29,25.29,0,0,0,3.21-3.17c5.37-6.35,7.63-15.4,6.7-26.87L92.46,41.12C93.38,52.6,91.13,61.64,85.75,68a25.37,25.37,0,0,1-3.21,3.18"/></g></g></g><g style="isolation:isolate"><g style="clip-path:url(#clip-path-14)"><g style="isolation:isolate"><path d="M71.28,60.29,57.77,71.43a11.44,11.44,0,0,0,4.3-8.16l13.5-11.14a11.45,11.45,0,0,1-4.29,8.16"/></g></g></g><g style="isolation:isolate"><g style="clip-path:url(#clip-path-15)"><g style="isolation:isolate"><path d="M71.9,61.07,58.39,72.22a12.39,12.39,0,0,0,4.67-9.39L76.57,51.69a12.36,12.36,0,0,1-4.67,9.38" style="fill:#858585"/></g></g></g><g style="isolation:isolate"><g style="clip-path:url(#clip-path-16)"><g style="isolation:isolate"><path d="M71.9,61.07,58.39,72.22l-.17.14,13.5-11.14.18-.15"/></g></g></g><g style="isolation:isolate"><g style="clip-path:url(#clip-path-17)"><g style="isolation:isolate"><path d="M71,60.53,57.47,71.68l.11-.1L71.09,60.44l-.11.09"/></g></g></g><g style="isolation:isolate"><g style="clip-path:url(#clip-path-18)"><g style="isolation:isolate"><path d="M71.61,61.31,58.11,72.45l.11-.09,13.5-11.14-.11.09" style="fill:#858585"/></g></g></g><polygon points="76.59 51.13 63.08 62.28 44.97 62.6 58.48 51.46 76.59 51.13" style="fill:gray"/><polygon points="58.48 51.46 44.97 62.6 43.91 49.41 57.41 38.27 58.48 51.46" style="fill:gray"/><polygon points="57.6 52.45 44.09 63.59 42.87 48.45 56.38 37.31 57.6 52.45"/><polygon points="75.57 52.13 62.07 63.27 44.09 63.59 57.6 52.45 75.57 52.13"/><g style="isolation:isolate"><g style="clip-path:url(#clip-path-19)"><g style="isolation:isolate"><path d="M71.61,61.31,58.11,72.45c-2.89,2.39-6.72,3.64-11.38,3.72-5.58.1-10.16-1.72-13.6-5.43s-5.47-8.92-6-15.46.65-11.74,3.5-15.51A14.86,14.86,0,0,1,33,37.3L46.48,26.16a14.1,14.1,0,0,0-2.34,2.47c-2.85,3.77-4,9-3.51,15.51s2.55,11.75,6,15.45,8,5.54,13.59,5.44c4.67-.09,8.5-1.34,11.38-3.72"/></g></g></g><g style="isolation:isolate"><g style="clip-path:url(#clip-path-20)"><g style="isolation:isolate"><path d="M82.54,71.17,69,82.31c-5.27,4.35-12.39,6.62-21.24,6.78a41.56,41.56,0,0,1-14.38-2.16,34.15,34.15,0,0,1-11.7-7.25A37.16,37.16,0,0,1,13.6,68.51a38.67,38.67,0,0,1-2.53-6.82,39.77,39.77,0,0,1-1.18-6.85,36.12,36.12,0,0,1,1.4-13.75,33.14,33.14,0,0,1,6.57-11.43A28.74,28.74,0,0,1,21,26.6l13.5-11.14a28.61,28.61,0,0,0-3.17,3.06A33.07,33.07,0,0,0,24.79,30,36.08,36.08,0,0,0,23.4,43.7a39,39,0,0,0,1.18,6.85,39.73,39.73,0,0,0,2.52,6.82,37.15,37.15,0,0,0,8.13,11.16,34,34,0,0,0,11.7,7.26A41.5,41.5,0,0,0,61.3,78c8.86-.16,16-2.44,21.24-6.78" style="fill:#858585"/></g></g></g><g style="isolation:isolate"><g style="clip-path:url(#clip-path-21)"><g style="isolation:isolate"><path d="M82.54,71.17,69,82.31c-5.27,4.35-12.39,6.62-21.24,6.78a41.56,41.56,0,0,1-14.38-2.16,34.15,34.15,0,0,1-11.7-7.25A37.16,37.16,0,0,1,13.6,68.51a38.67,38.67,0,0,1-2.53-6.82,39.77,39.77,0,0,1-1.18-6.85,36.12,36.12,0,0,1,1.4-13.75,33.14,33.14,0,0,1,6.57-11.43A28.74,28.74,0,0,1,21,26.6l13.5-11.14a28.61,28.61,0,0,0-3.17,3.06A33.07,33.07,0,0,0,24.79,30,36.08,36.08,0,0,0,23.4,43.7a39,39,0,0,0,1.18,6.85,39.73,39.73,0,0,0,2.52,6.82,37.15,37.15,0,0,0,8.13,11.16,34,34,0,0,0,11.7,7.26A41.5,41.5,0,0,0,61.3,78c8.86-.16,16-2.44,21.24-6.78" style="fill:#858585"/></g></g></g><path d="M55.66,8.2A37.64,37.64,0,0,1,73,11.81a32.73,32.73,0,0,1,4.91,2.85,33.86,33.86,0,0,1,4.56,3.81,37.32,37.32,0,0,1,3.59,4.12L71.81,30.11a21.68,21.68,0,0,0-6.71-5.57,18,18,0,0,0-8.28-1.81c-5.58.1-9.84,2.09-12.68,5.9s-4,9-3.51,15.51,2.55,11.75,6,15.45,8,5.54,13.59,5.44c4.73-.09,8.59-1.37,11.49-3.81a12.43,12.43,0,0,0,4.85-9.53l0-.56-18.11.33-1.07-13.2,34.69-.62a7,7,0,0,0,.16,1l.2,2.44C93.38,52.6,91.13,61.64,85.75,68S72.11,77.75,61.3,78a41.5,41.5,0,0,1-14.37-2.16,34,34,0,0,1-11.7-7.26A37.15,37.15,0,0,1,27.1,57.37a39.73,39.73,0,0,1-2.52-6.82A39,39,0,0,1,23.4,43.7,36.08,36.08,0,0,1,24.79,30a33.07,33.07,0,0,1,6.58-11.43A29.48,29.48,0,0,1,42,11,36.88,36.88,0,0,1,55.66,8.2Z" style="fill:#f4f4f4"/><g style="isolation:isolate"><g style="clip-path:url(#clip-path-22)"><g style="isolation:isolate"><path d="M83.19,71.93,69.68,83.08c-5.42,4.47-12.74,6.82-21.81,7a42.36,42.36,0,0,1-14.72-2.21,35.2,35.2,0,0,1-12.06-7.48,38,38,0,0,1-8.35-11.48,38.82,38.82,0,0,1-2.59-7,40.13,40.13,0,0,1-1.22-7,37.23,37.23,0,0,1,1.45-14.12A33.49,33.49,0,0,1,17.13,29a27.72,27.72,0,0,1,3.26-3.15L33.9,14.69a29.57,29.57,0,0,0-3.27,3.16A33.65,33.65,0,0,0,23.88,29.6a37,37,0,0,0-1.44,14.11,40.21,40.21,0,0,0,1.21,7,40.7,40.7,0,0,0,2.59,7A38.32,38.32,0,0,0,34.6,69.23a35.41,35.41,0,0,0,12,7.48,42.42,42.42,0,0,0,14.73,2.21c9.07-.16,16.38-2.51,21.81-7"/></g></g></g><path d="M93.21,38.57l.21,2.54c1,11.73-1.38,21-6.91,27.55S72.45,78.72,61.38,78.92a42.42,42.42,0,0,1-14.73-2.21,35.41,35.41,0,0,1-12-7.48,38.32,38.32,0,0,1-8.36-11.48,40.7,40.7,0,0,1-2.59-7,40.21,40.21,0,0,1-1.21-7A37,37,0,0,1,23.88,29.6a33.65,33.65,0,0,1,6.75-11.75,30.09,30.09,0,0,1,11-7.8A37.32,37.32,0,0,1,55.58,7.23a38.67,38.67,0,0,1,17.82,3.7,34.32,34.32,0,0,1,5,2.94,35.92,35.92,0,0,1,4.7,3.92,40.8,40.8,0,0,1,4,4.71l.33.47L71.61,31.34,71.34,31a21,21,0,0,0-6.62-5.61,17,17,0,0,0-7.82-1.69c-5.29.09-9.32,2-12,5.55s-3.84,8.57-3.33,14.86S44,55.42,47.32,59s7.55,5.2,12.83,5.1c4.51-.08,8.19-1.3,10.94-3.61a11.48,11.48,0,0,0,4.48-8.31l-18,.32L56.38,37.31,93,36.65l0,.48A8.53,8.53,0,0,0,93.21,38.57Zm-.75,2.55-.2-2.44a7,7,0,0,1-.16-1l-34.69.62,1.07,13.2,18.11-.33,0,.56a12.43,12.43,0,0,1-4.85,9.53C68.82,63.66,65,64.94,60.23,65c-5.58.1-10.15-1.73-13.59-5.44s-5.48-8.91-6-15.45.66-11.74,3.51-15.51,7.1-5.8,12.68-5.9a18,18,0,0,1,8.28,1.81,21.68,21.68,0,0,1,6.71,5.57l14.28-7.52a37.32,37.32,0,0,0-3.59-4.12,33.86,33.86,0,0,0-4.56-3.81A32.73,32.73,0,0,0,73,11.81,37.64,37.64,0,0,0,55.66,8.2,36.88,36.88,0,0,0,42,11a29.48,29.48,0,0,0-10.67,7.57A33.07,33.07,0,0,0,24.79,30,36.08,36.08,0,0,0,23.4,43.7a39,39,0,0,0,1.18,6.85,39.73,39.73,0,0,0,2.52,6.82,37.15,37.15,0,0,0,8.13,11.16,34,34,0,0,0,11.7,7.26A41.5,41.5,0,0,0,61.3,78c10.81-.2,19-3.54,24.45-10s7.63-15.39,6.71-26.87"/></g></g></svg>